<?xml version="1.0" encoding="utf-8"?>
<!-- Generator: Adobe Illustrator 17.0.0, SVG Export Plug-In . SVG Version: 6.00 Build 0)  -->
<!DOCTYPE svg PUBLIC "-//W3C//DTD SVG 1.1//EN" "http://www.w3.org/Graphics/SVG/1.1/DTD/svg11.dtd">
<svg version="1.1" id="fusion-next-logo" xmlns="http://www.w3.org/2000/svg" xmlns:xlink="http://www.w3.org/1999/xlink" x="0px"
	 y="0px" width="238.038px" height="69.442px" viewBox="0 0 238.038 69.442" enable-background="new 0 0 238.038 69.442"
	 xml:space="preserve">
<g>
	<g>
		<g>
			<path fill="#FCFCFC" d="M192.824,43.996v25.445h-4.716V43.996H192.824z"/>
			<path fill="#FCFCFC" d="M196.952,69.442V50.758h3.648l0.587,2.74c1.791-1.827,3.831-2.74,6.121-2.74
				c4.425,0,6.637,2.301,6.637,6.904v11.78h-4.715v-11.78c0-2.064-1.026-3.096-3.079-3.096c-1.53,0-3.025,0.611-4.484,1.833v13.043
				H196.952z"/>
			<path fill="#FCFCFC" d="M231.419,68.908c-1.542,0.356-3.144,0.534-4.804,0.534c-6.643,0-9.965-3.232-9.965-9.698
				c0-5.991,3.321-8.986,9.965-8.986c1.66,0,3.262,0.178,4.804,0.534v3.737c-1.542-0.356-3.025-0.534-4.448-0.534
				c-3.737,0-5.605,1.75-5.605,5.249c0,3.974,1.868,5.961,5.605,5.961c1.423,0,2.906-0.178,4.448-0.534V68.908z"/>
			<path fill="#FCFCFC" d="M238.038,65.082v4.36h-4.715v-4.36H238.038z"/>
		</g>
		<g>
			<path fill="#FCFCFC" d="M143.253,50.757c5.67,0,8.505,2.895,8.505,8.683c0,0.771-0.053,1.542-0.16,2.313h-12.402
				c0,2.633,1.933,3.95,5.801,3.95c1.886,0,3.772-0.178,5.658-0.534v3.737c-1.649,0.356-3.654,0.534-6.014,0.534
				c-6.774,0-10.161-3.185-10.161-9.555C134.48,53.8,137.404,50.757,143.253,50.757z M139.196,58.48h7.972v-0.142
				c0-2.586-1.305-3.879-3.915-3.879C140.762,54.458,139.409,55.799,139.196,58.48z"/>
			<path fill="#FCFCFC" d="M172.719,47.732h3.488l0.712,3.025h4.698v3.737h-4.182v8.594c0,1.744,0.753,2.616,2.26,2.616h1.922v3.737
				h-4.199c-3.132,0-4.698-1.678-4.698-5.036V47.732z"/>
			<polygon fill="#FCFCFC" points="157.559,50.757 152.31,50.757 159.303,60.099 152.31,69.441 157.559,69.441 161.919,63.604 
				161.919,56.594 			"/>
			<polygon fill="#FCFCFC" points="159.975,50.757 165.224,50.757 169.584,56.594 169.584,63.604 165.224,69.441 159.975,69.441 
				166.95,60.099 			"/>
		</g>
		<g>
			<path d="M16.708,37.308v4.057H4.68v6.406h11.424v4.217H4.626v10.765H0V37.308H16.708z"/>
			<path d="M36.317,44.07v18.683h-3.683l-0.569-2.385c-2.147,1.59-4.425,2.385-6.833,2.385c-3.82,0-5.73-2.26-5.73-6.78V44.07h4.715
				v11.78c0,2.064,0.901,3.096,2.705,3.096c1.53,0,3.09-0.611,4.68-1.833V44.07H36.317z"/>
			<path d="M40,61.864v-3.915c2.076,0.831,4.472,1.246,7.189,1.246c2.029,0,3.043-0.652,3.043-1.957
				c0-1.246-0.682-1.868-2.046-1.868h-3.381c-3.796,0-5.694-1.868-5.694-5.605c0-3.915,2.77-5.872,8.31-5.872
				c2.349,0,4.561,0.356,6.637,1.068v3.914c-2.076-0.83-4.33-1.245-6.762-1.245c-2.551,0-3.826,0.653-3.826,1.957
				c0,1.246,0.741,1.868,2.224,1.868h3.025c4.152,0,6.228,1.868,6.228,5.605c0,3.915-2.645,5.872-7.936,5.872
				C44.413,62.931,42.076,62.575,40,61.864z"/>
			<path d="M62.189,44.07v18.683h-4.715V44.07H62.189z"/>
			<path d="M64.983,53.411c0-6.263,3.084-9.395,9.253-9.395c6.168,0,9.253,3.132,9.253,9.395c0,6.252-3.084,9.377-9.253,9.377
				C68.091,62.789,65.006,59.663,64.983,53.411z M74.236,59.194c3.025,0,4.538-1.951,4.538-5.854c0-3.808-1.513-5.712-4.538-5.712
				c-3.025,0-4.537,1.904-4.537,5.712C69.698,57.243,71.211,59.194,74.236,59.194z"/>
			<path d="M86.282,62.753V44.07h3.648l0.587,2.74c1.791-1.827,3.832-2.74,6.121-2.74c4.425,0,6.637,2.302,6.637,6.904v11.78H98.56
				v-11.78c0-2.064-1.026-3.096-3.078-3.096c-1.53,0-3.025,0.611-4.484,1.833v13.043H86.282z"/>
		</g>
		<g>
			<path d="M59.876,30.04c-3.282,0-5.943,2.661-5.943,5.943c0,3.282,2.661,5.943,5.943,5.943c3.282,0,5.943-2.661,5.943-5.943
				C65.819,32.701,63.158,30.04,59.876,30.04z M58.505,34.22c-0.866,0-1.567-0.702-1.567-1.567c0-0.866,0.702-1.567,1.567-1.567
				c0.866,0,1.567,0.702,1.567,1.567C60.072,33.518,59.37,34.22,58.505,34.22z"/>
			<path d="M92.39,24.811l0.546-0.938L106.83,0L82.087,15.997c-0.158-0.111-0.313-0.22-0.464-0.323
				C73.074,9.824,52.758-1.175,45.705,3.396C40.484,6.78,53.28,21.942,53.28,21.942s-2.743-6.792,0.862-8.578
				c4.663-2.311,13.616,2.538,20.668,7.336l-8.992,5.813l10.031-5.098c0.828,0.577,1.625,1.149,2.377,1.702
				c2.407,1.769,5.241,3.709,8.028,5.828l-0.325,0.53L72.345,51.61l-3-2.892l4.571,7.837l14.894-25.592
				c4.584,3.772,8.613,8.065,9.791,12.923c1.07,4.415-14.106,2.612-14.106,2.612s20.107,4.31,20.107-4.08
				C104.603,38.242,98.677,30.966,92.39,24.811z M97.688,10.318l-7.568,12.331c-2.194-2.03-4.35-3.863-6.232-5.318L97.688,10.318z"
				/>
		</g>
		<polygon fill="#FCFCFC" points="127.433,43.996 127.433,62.537 113.999,43.996 109.284,43.996 109.284,69.441 113.821,69.441 
			113.821,50.508 127.255,69.441 131.971,69.441 131.971,43.996 		"/>
	</g>
</g>
</svg>
